<svg width="94" height="95" viewBox="0 0 94 95" fill="none" xmlns="http://www.w3.org/2000/svg">
<rect width="94" height="95" rx="20" fill="white"/>
<rect width="94" height="95" rx="20" fill="url(#paint0_radial_2945_546)"/>
<path fill-rule="evenodd" clip-rule="evenodd" d="M19.7125 15.0899C20.0403 15.084 20.4276 15.1198 20.6362 15.1735C20.8329 15.2212 21.1964 15.3643 21.4408 15.4776C21.8758 15.6864 22.0486 15.8594 26.852 20.6549C31.7865 25.5876 31.8104 25.6115 31.9594 25.522C32.0368 25.4743 32.46 25.188 32.895 24.8898C33.3301 24.5915 33.9439 24.1919 34.2538 24.001C34.5637 23.8102 35.2252 23.4463 35.7139 23.1899C36.2085 22.9393 36.9833 22.5695 37.4422 22.3727C37.901 22.1759 38.7056 21.8717 39.23 21.6868C39.7545 21.5078 40.5292 21.2633 40.9583 21.15C41.3814 21.0307 42.1204 20.8577 42.5972 20.7563C43.0739 20.6609 43.8665 20.5237 44.3552 20.4581C44.8499 20.3865 45.5948 20.309 46.0239 20.2732C46.447 20.2374 47.335 20.2135 47.9906 20.2135C48.6461 20.2135 49.5281 20.2374 49.9572 20.2732C50.3803 20.309 51.1372 20.3865 51.6259 20.4581C52.1205 20.5237 52.8535 20.6489 53.2648 20.7324C53.676 20.816 54.3196 20.9591 54.695 21.0545C55.0705 21.1559 55.887 21.4005 56.5127 21.6092C57.1325 21.818 58.0324 22.158 58.5092 22.3608C58.9859 22.5636 59.6117 22.8499 59.9096 22.999C60.2017 23.1481 60.7559 23.4463 61.1314 23.6611C61.5068 23.8758 62.073 24.2098 62.3829 24.4066C62.6928 24.6035 63.1874 24.9434 63.4854 25.1522C63.7774 25.3669 64.0634 25.5518 64.1111 25.5697C64.1707 25.5876 65.8871 23.9056 69.1469 20.643C73.9384 15.8534 74.1053 15.6864 74.5403 15.4776C74.7847 15.3643 75.1482 15.2212 75.3449 15.1735C75.5415 15.1257 75.9408 15.084 76.2388 15.084C76.5845 15.084 76.942 15.1257 77.2519 15.2033C77.5141 15.2749 77.8896 15.412 78.0803 15.5194C78.277 15.6268 78.5988 15.8594 78.7955 16.0443C78.9981 16.2232 79.2663 16.5453 79.4033 16.76C79.5404 16.9688 79.7192 17.3446 79.8086 17.5891C79.9218 17.8993 79.9814 18.1975 80.0052 18.5733C80.0231 18.949 80.0052 19.2473 79.9397 19.5574C79.886 19.802 79.7549 20.1897 79.6536 20.4223C79.4748 20.8279 79.2901 21.0187 74.4688 25.8501C71.7215 28.6057 69.4747 30.8842 69.4747 30.92C69.4747 30.9498 69.5641 31.0989 69.6714 31.248C69.7846 31.3971 70.0886 31.8385 70.3508 32.2322C70.613 32.6258 71.0421 33.3118 71.2924 33.7531C71.5486 34.1945 71.9539 34.958 72.1863 35.453C72.4247 35.9421 72.7644 36.7235 72.9491 37.1828C73.1279 37.642 73.3961 38.3936 73.5451 38.8529C73.6941 39.3121 73.8848 39.9444 73.9682 40.2545C74.0517 40.5647 74.2126 41.2924 74.3258 41.865C74.439 42.4376 74.5761 43.2428 74.6238 43.6543C74.6774 44.0659 74.743 44.7638 74.7787 45.2051C74.8085 45.6465 74.8383 46.4935 74.8383 47.084C74.8383 47.6745 74.8085 48.5215 74.7787 48.9628C74.743 49.4042 74.6774 50.1021 74.6238 50.5136C74.5761 50.9252 74.4629 51.6051 74.3854 52.0346C74.302 52.4581 74.141 53.1738 74.0338 53.6152C73.9205 54.0566 73.7179 54.7664 73.5868 55.1958C73.4497 55.6193 73.1637 56.4126 72.9491 56.9554C72.7346 57.4981 72.3413 58.3809 72.079 58.9237C71.8109 59.4665 71.352 60.3134 71.054 60.8025C70.762 61.2976 70.3031 62.0014 70.0409 62.3712C69.7787 62.741 69.5343 63.087 69.5045 63.1347C69.4568 63.2003 70.4878 64.268 74.3437 68.1211C77.6631 71.4553 79.308 73.1373 79.451 73.3699C79.5702 73.5608 79.7371 73.9246 79.8205 74.1751C79.9218 74.4674 79.9874 74.8312 80.0112 75.1474C80.0291 75.5112 80.0112 75.7856 79.9337 76.1315C79.8741 76.394 79.7192 76.8234 79.5881 77.0858C79.4152 77.4258 79.2245 77.6883 78.9266 77.9865C78.6107 78.2967 78.3723 78.4696 77.9969 78.6545C77.7168 78.7917 77.2996 78.9468 77.0731 78.9945C76.8407 79.0422 76.4653 79.084 76.2388 79.084C76.0064 79.084 75.6131 79.0303 75.3449 78.9647C75.0827 78.8931 74.6774 78.744 74.4509 78.6247C74.0695 78.4279 73.6047 77.9746 69.1171 73.4952C66.4115 70.7992 64.1648 68.5863 64.123 68.5863C64.0873 68.5863 63.8012 68.7653 63.4973 68.9859C63.1993 69.2066 62.6689 69.5645 62.3233 69.7792C61.9776 69.994 61.483 70.2922 61.2207 70.4473C60.9585 70.5964 60.3387 70.9185 59.8501 71.163C59.3554 71.4135 58.5509 71.7714 58.0622 71.9742C57.5675 72.171 56.7392 72.4693 56.2147 72.6422C55.6903 72.8092 54.8977 73.0359 54.4567 73.1492C54.0157 73.2566 53.372 73.4057 53.0264 73.4713C52.6807 73.5369 51.9834 73.6443 51.4769 73.7099C50.9703 73.7815 50.1479 73.859 49.6592 73.8948C49.1646 73.9246 48.4137 73.9544 47.9906 73.9544C47.5615 73.9544 46.8106 73.9246 46.3219 73.8948C45.8272 73.859 45.0108 73.7815 44.5042 73.7159C43.9977 73.6443 43.2467 73.525 42.8355 73.4415C42.4243 73.358 41.7807 73.2148 41.4053 73.1194C41.0298 73.024 40.3325 72.8212 39.8558 72.6661C39.379 72.517 38.5864 72.2307 38.0977 72.0398C37.6031 71.8489 36.7747 71.4791 36.2502 71.2227C35.7258 70.9662 35.0703 70.6262 34.7902 70.4652C34.5101 70.3041 33.932 69.9462 33.5089 69.6719C33.0798 69.3975 32.5613 69.0396 32.3467 68.8786C32.1322 68.7235 31.9177 68.5923 31.87 68.5863C31.8163 68.5863 29.6053 70.7634 26.9533 73.4176C23.7769 76.5968 22.001 78.3324 21.7685 78.4875C21.5719 78.6128 21.1964 78.7917 20.9342 78.8871C20.5111 79.0363 20.374 79.0542 19.7125 79.0482C19.0569 79.0482 18.9139 79.0303 18.5206 78.8871C18.2762 78.7977 17.9306 78.6366 17.7518 78.5293C17.573 78.4279 17.2572 78.1654 17.0486 77.9507C16.7744 77.6763 16.5957 77.4199 16.4288 77.0858C16.3036 76.8234 16.1546 76.4476 16.107 76.2508C16.0593 76.054 16.0176 75.6484 16.0176 75.3561C16.0176 75.0579 16.0593 74.6463 16.1129 74.4316C16.1606 74.2169 16.3156 73.8292 16.4467 73.5667C16.685 73.1075 16.8638 72.9166 21.6017 68.1688C24.2954 65.4609 26.5064 63.2301 26.5064 63.2003C26.5064 63.1764 26.274 62.8305 25.9819 62.4249C25.6959 62.0253 25.2489 61.3334 24.9807 60.892C24.7185 60.4506 24.349 59.8064 24.1643 59.4605C23.9855 59.1146 23.6696 58.4585 23.467 57.9992C23.2644 57.5399 22.9783 56.854 22.8413 56.4782C22.6982 56.1024 22.4777 55.4404 22.3466 55.0169C22.2095 54.5874 22.0188 53.9194 21.9235 53.5257C21.8281 53.1321 21.6911 52.5416 21.6255 52.2135C21.56 51.8855 21.4527 51.2294 21.3871 50.7522C21.3216 50.275 21.2381 49.446 21.1964 48.9032C21.1547 48.2888 21.1368 47.3584 21.1607 46.4279C21.1785 45.6048 21.2381 44.5729 21.2918 44.1315C21.3454 43.6901 21.4527 42.9386 21.5361 42.4614C21.6136 41.9843 21.7745 41.2089 21.8937 40.7317C22.0069 40.2545 22.287 39.3181 22.5135 38.6441C22.734 37.9701 23.0796 37.0396 23.2823 36.5684C23.4849 36.1032 23.7888 35.4352 23.9676 35.0773C24.1404 34.7254 24.4384 34.1707 24.6291 33.8426C24.8139 33.5146 25.2787 32.7809 25.6601 32.2143C26.0475 31.6476 26.3991 31.1168 26.4468 31.0333C26.5362 30.8901 26.4945 30.8484 21.5838 25.9276C16.7923 21.1201 16.6195 20.9472 16.4109 20.5118C16.2977 20.2672 16.1546 19.9034 16.107 19.7065C16.0593 19.5097 16.0176 19.1041 16.0176 18.8119C16.0176 18.5136 16.0593 18.108 16.107 17.8993C16.1546 17.6965 16.2619 17.3863 16.3394 17.2133C16.4169 17.0463 16.6016 16.7362 16.7566 16.5274C16.9056 16.3246 17.1856 16.0383 17.3704 15.8892C17.5611 15.7401 17.877 15.5373 18.0736 15.4419C18.2703 15.3464 18.5921 15.2271 18.7888 15.1794C18.9854 15.1317 19.4026 15.0899 19.7125 15.0899ZM45.7557 27.878C45.3147 27.9317 44.5638 28.051 44.087 28.1464C43.6103 28.2419 42.9011 28.4148 42.5078 28.5341C42.1144 28.6534 41.5364 28.8502 41.2265 28.9636C40.9166 29.0829 40.3504 29.3155 39.975 29.4885C39.5995 29.6614 38.9678 29.9835 38.5745 30.2042C38.1811 30.4249 37.5494 30.8186 37.174 31.075C36.7985 31.3256 36.1906 31.7729 35.8331 32.0592C35.4695 32.3455 34.8021 32.9598 34.3372 33.4191C33.8783 33.8844 33.2645 34.5524 32.9785 34.9162C32.6924 35.2741 32.1858 35.972 31.8581 36.467C31.4766 37.0337 31.0476 37.7971 30.6781 38.5546C30.3562 39.2107 29.9689 40.0816 29.8199 40.4931C29.6769 40.9047 29.4862 41.4773 29.4027 41.7755C29.3252 42.0678 29.2001 42.5688 29.1286 42.879C29.0571 43.1891 28.9498 43.7796 28.8902 44.1912C28.8246 44.6027 28.7472 45.3662 28.7055 45.8911C28.6697 46.4279 28.6578 47.2212 28.6757 47.7103C28.6995 48.1874 28.7412 48.8137 28.777 49.1119C28.8068 49.4042 28.8842 49.9708 28.9558 50.3645C29.0213 50.7582 29.1703 51.456 29.2895 51.9153C29.4027 52.3746 29.5934 53.0187 29.7067 53.3468C29.8258 53.6749 30.0464 54.2534 30.2132 54.6292C30.3741 55.005 30.684 55.6491 30.8986 56.0607C31.1131 56.4722 31.423 57.021 31.5899 57.2834C31.7567 57.5459 32.0845 58.023 32.3169 58.3511C32.5434 58.6732 32.9606 59.21 33.2407 59.544C33.5148 59.8721 34.0392 60.4387 34.4028 60.8025C34.7663 61.1604 35.4099 61.739 35.8331 62.079C36.2622 62.4249 36.9177 62.908 37.2932 63.1585C37.6686 63.4091 38.2586 63.7669 38.6043 63.9638C38.9499 64.1606 39.5638 64.4707 39.975 64.6557C40.3862 64.8406 41.0119 65.103 41.3755 65.2402C41.733 65.3714 42.2694 65.5503 42.5674 65.6338C42.8594 65.7174 43.3838 65.8545 43.7295 65.9321C44.0751 66.0096 44.7426 66.1349 45.2194 66.2124C45.9762 66.3257 46.3159 66.3436 47.9608 66.3496C49.1944 66.3496 50.0228 66.3257 50.3744 66.2721C50.6664 66.2303 51.31 66.117 51.8047 66.0156C52.2933 65.9201 53.0204 65.7472 53.4137 65.6338C53.8071 65.5205 54.3971 65.3237 54.7248 65.1984C55.0526 65.0732 55.6426 64.8227 56.0359 64.6497C56.4293 64.4708 57.0729 64.1367 57.4662 63.9101C57.8596 63.6894 58.4913 63.2898 58.8667 63.0333C59.2422 62.7828 59.8441 62.3354 60.2076 62.0432C60.5652 61.7569 61.1969 61.1843 61.6081 60.7727C62.0193 60.3612 62.5855 59.7468 62.8715 59.4009C63.1516 59.0549 63.5628 58.5181 63.7834 58.2079C64.0039 57.8978 64.3674 57.3311 64.5879 56.9554C64.8144 56.5796 65.1838 55.8817 65.4103 55.4046C65.6427 54.9274 65.9705 54.1639 66.1374 53.7047C66.3102 53.2454 66.5665 52.4104 66.7035 51.8557C66.8466 51.295 67.0194 50.4778 67.0849 50.0365C67.1505 49.5951 67.2339 48.8018 67.2756 48.2769C67.3114 47.7341 67.3233 46.9468 67.3054 46.4577C67.2816 45.9805 67.2339 45.3364 67.2041 45.0262C67.1684 44.716 67.0909 44.1494 67.0253 43.7736C66.9598 43.3979 66.8406 42.8074 66.7572 42.4614C66.6737 42.1155 66.5188 41.5787 66.4234 41.2685C66.3221 40.9584 66.1255 40.3917 65.9765 40.016C65.8275 39.6402 65.5116 38.9423 65.2732 38.4652C65.0408 37.988 64.6654 37.3021 64.4389 36.9442C64.2184 36.5803 63.8727 36.0614 63.6701 35.7811C63.4735 35.5008 63.0503 34.9639 62.7345 34.5882C62.4186 34.2124 61.8405 33.5921 61.4532 33.2163C61.0598 32.8406 60.4639 32.3037 60.1182 32.0294C59.7726 31.749 59.117 31.2778 58.6581 30.9736C58.1993 30.6694 57.5556 30.2758 57.2278 30.1028C56.9001 29.9239 56.3518 29.6495 56.0061 29.4885C55.6605 29.3334 55.1122 29.1008 54.7844 28.9695C54.4567 28.8443 53.8249 28.6355 53.3839 28.5103C52.9429 28.379 52.2278 28.2061 51.8047 28.1226C51.3756 28.0391 50.6962 27.9317 50.285 27.878C49.8738 27.8303 49.0156 27.7766 48.3779 27.7647C47.7402 27.7528 47.0668 27.7528 46.888 27.7647C46.7092 27.7766 46.1967 27.8303 45.7557 27.878ZM43.7176 35.6618C43.7414 35.6618 45.3028 36.1449 47.186 36.7295C49.0692 37.32 51.757 38.161 53.1634 38.5964C55.2493 39.2465 55.7082 39.4076 55.7082 39.4911C55.7082 39.5746 55.6247 39.6163 55.3685 39.664C55.1778 39.6998 54.6056 39.831 54.0991 39.9623C53.5925 40.0935 52.7582 40.338 52.2516 40.505C51.7451 40.6661 50.7915 41.018 50.136 41.2745C49.4804 41.531 48.3541 42.0379 47.633 42.3958C46.9119 42.7477 45.9583 43.2488 45.5173 43.5052C45.0763 43.7557 44.242 44.2747 43.6699 44.6504C43.0978 45.0322 42.3051 45.5809 41.9118 45.8791C41.5185 46.1774 40.8987 46.6605 40.5411 46.9647C40.1776 47.2629 39.5518 47.8176 39.1406 48.1934C38.7294 48.5751 38.0679 49.2312 37.6686 49.6547C37.2693 50.0782 36.7389 50.6627 36.4886 50.961C36.2324 51.2532 35.7556 51.8497 35.4219 52.2732C35.0941 52.7026 34.7246 53.1917 34.6114 53.3647C34.4981 53.5317 34.3909 53.6749 34.373 53.6749C34.3551 53.6749 34.3015 53.651 34.2538 53.6212C34.1763 53.5735 34.2002 53.4721 34.3968 52.9174C34.522 52.5654 34.814 51.8318 35.0405 51.289C35.2729 50.7462 35.696 49.8217 35.9821 49.2312C36.2741 48.6407 36.7568 47.7282 37.0548 47.2033C37.3587 46.6784 37.8593 45.8612 38.1692 45.3841C38.4851 44.9069 39.0036 44.1613 39.3254 43.7259C39.6531 43.2965 40.0942 42.7298 40.3147 42.4734C40.5352 42.2228 40.9702 41.7338 41.2861 41.3997C41.596 41.0598 42.174 40.4872 42.5674 40.1352C42.9607 39.7774 43.5209 39.2942 43.8189 39.0616C44.1109 38.835 44.3612 38.6262 44.3671 38.5964C44.3731 38.5725 44.2122 37.9343 44.0036 37.1828C43.795 36.4253 43.6401 35.7751 43.652 35.7334C43.6699 35.6976 43.6997 35.6618 43.7176 35.6618ZM61.6677 40.4335C61.6856 40.4335 61.7273 40.4573 61.7631 40.4812C61.8107 40.511 61.7452 40.7556 61.5485 41.2983C61.3936 41.7218 61.0956 42.4734 60.887 42.9684C60.6844 43.4635 60.2136 44.4655 59.8441 45.2051C59.4746 45.9447 58.9561 46.9229 58.682 47.3822C58.4138 47.8415 57.9549 48.5811 57.6569 49.0225C57.3649 49.4639 56.8762 50.1498 56.5783 50.5375C56.2803 50.9311 55.7499 51.5753 55.4042 51.969C55.0586 52.3686 54.3732 53.0784 53.8845 53.5556C53.3959 54.0327 52.6807 54.6769 52.2933 54.9871C51.906 55.2972 51.5961 55.5656 51.5961 55.5835C51.602 55.6014 51.7689 56.2277 51.9775 56.9852C52.2099 57.8322 52.3351 58.3869 52.3053 58.4286C52.2635 58.4883 52.1801 58.4823 51.9119 58.3928C51.7212 58.3332 50.3624 57.9037 48.8845 57.4445C47.4125 56.9852 44.8737 56.1919 43.2527 55.6909C40.6901 54.8916 40.3027 54.7544 40.3027 54.653C40.3027 54.5755 40.3504 54.5338 40.4517 54.5218C40.5352 54.5099 40.9344 54.4204 41.3457 54.325C41.7569 54.2296 42.5078 54.0268 43.0143 53.8776C43.5209 53.7226 44.4089 53.4243 44.981 53.2156C45.5531 53.0009 46.5305 52.6012 47.1562 52.3269C47.776 52.0465 48.7593 51.5694 49.3314 51.2652C49.9036 50.961 50.6545 50.5375 51.0001 50.3347C51.3458 50.1319 52.0132 49.7024 52.49 49.3863C52.9668 49.0702 53.6879 48.5632 54.0991 48.253C54.5103 47.9488 55.136 47.4478 55.4996 47.1436C55.8572 46.8454 56.5425 46.231 57.0193 45.7897C57.496 45.3483 58.2231 44.6087 58.6403 44.1554C59.0574 43.7021 59.6534 43.0161 59.9633 42.6404C60.2791 42.2646 60.7857 41.6145 61.0837 41.191C61.3876 40.7735 61.6498 40.4335 61.6677 40.4335Z" fill="white"/>
<defs>
<radialGradient id="paint0_radial_2945_546" cx="0" cy="0" r="1" gradientUnits="userSpaceOnUse" gradientTransform="translate(47 47.5) rotate(90) scale(47.5 47)">
<stop stop-color="#E8E8E8"/>
<stop offset="1" stop-color="#969696"/>
</radialGradient>
</defs>
</svg>
