<svg width="18" height="14" viewBox="0 0 18 14" fill="none" xmlns="http://www.w3.org/2000/svg">
<path d="M17.125 2.625V11.375C17.125 11.8723 16.9275 12.3492 16.5758 12.7008C16.2242 13.0525 15.7473 13.25 15.25 13.25H2.75C2.25272 13.25 1.77581 13.0525 1.42417 12.7008C1.07254 12.3492 0.875 11.8723 0.875 11.375V2.625M17.125 2.625C17.125 2.12772 16.9275 1.65081 16.5758 1.29917C16.2242 0.947544 15.7473 0.75 15.25 0.75H2.75C2.25272 0.75 1.77581 0.947544 1.42417 1.29917C1.07254 1.65081 0.875 2.12772 0.875 2.625M17.125 2.625V2.8275C17.125 3.14762 17.0431 3.46242 16.887 3.74191C16.7309 4.0214 16.5059 4.25628 16.2333 4.42417L9.98333 8.27C9.68767 8.45211 9.34725 8.54854 9 8.54854C8.65275 8.54854 8.31233 8.45211 8.01667 8.27L1.76667 4.425C1.4941 4.25711 1.26906 4.02224 1.11297 3.74275C0.95689 3.46325 0.874965 3.14845 0.875 2.82833V2.625" stroke="url(#paint0_linear_2001_791)" stroke-width="1.5" stroke-linecap="round" stroke-linejoin="round"/>
<defs>
<linearGradient id="paint0_linear_2001_791" x1="0.875" y1="3.20098" x2="17.0895" y2="4.27097" gradientUnits="userSpaceOnUse">
<stop stop-color="#6494EE"/>
<stop offset="1" stop-color="#085BF7"/>
</linearGradient>
</defs>
</svg>
